<svg xmlns="http://www.w3.org/2000/svg"><symbol id="edu" viewBox="0 0 24 24"><path d="M16 21h-2.28a1.98 1.98 0 0 1-3.44 0H8v-1h8v1zm4-11a7.98 7.98 0 0 1-4 6.92V19H8v-2.08A7.98 7.98 0 0 1 4 10c0-4.42 3.58-8 8-8s8 3.58 8 8zm-5 8v-1.66l.5-.29A7.017 7.017 0 0 0 19 10c0-3.86-3.14-7-7-7s-7 3.14-7 7c0 2.48 1.34 4.8 3.5 6.06l.5.28V18h6z"/></symbol><symbol id="history" viewBox="0 0 24 24"><path d="M14.97 16.95L10 13.87V7h2v5.76l4.03 2.49-1.06 1.7zM22 12c0 5.51-4.49 10-10 10S2 17.51 2 12h1c0 4.96 4.04 9 9 9s9-4.04 9-9-4.04-9-9-9C8.81 3 5.92 4.64 4.28 7.38c-.11.18-.22.37-.31.56L3.94 8H8v1H1.96V3h1v4.74c.04-.09.07-.17.11-.25.11-.22.23-.42.35-.63C5.22 3.86 8.51 2 12 2c5.51 0 10 4.49 10 10z"/></symbol><symbol id="game" viewBox="0 0 24 24"><path d="M10 12H8v2H6v-2H4v-2h2V8h2v2h2v2zm7 .5c0-.83-.67-1.5-1.5-1.5s-1.5.67-1.5 1.5.67 1.5 1.5 1.5 1.5-.67 1.5-1.5zm3-3c0-.83-.67-1.5-1.5-1.5S17 8.67 17 9.5s.67 1.5 1.5 1.5 1.5-.67 1.5-1.5zm-3.03-4.35l-4.5 2.53-.49.27-.49-.27-4.5-2.53L3 7.39v6.43l8.98 5.04 8.98-5.04V7.39l-3.99-2.24m0-1.15l4.99 2.8v7.6L11.98 20 2 14.4V6.8L6.99 4l4.99 2.8L16.97 4z"/></symbol><symbol id="customers" viewBox="0 0 24 24"><path d="M15.36 9.96c0 1.09-.67 1.67-1.31 2.24-.53.47-1.03.9-1.16 1.6l-.04.2H11.1l.03-.28c.14-1.17.8-1.76 1.47-2.27.52-.4 1.01-.77 1.01-1.49a1.634 1.634 0 0 0-2.05-1.58c-.59.15-1.05.67-1.19 1.34l-.05.28H8.57l.06-.42c.2-1.4 1.15-2.53 2.42-2.87 1.05-.29 2.14-.08 2.98.57.85.64 1.33 1.62 1.33 2.68zM12 18c.55 0 1-.45 1-1s-.45-1-1-1-1 .45-1 1 .45 1 1 1zm0-15c-4.96 0-9 4.04-9 9s4.04 9 9 9 9-4.04 9-9-4.04-9-9-9m0-1c5.52 0 10 4.48 10 10s-4.48 10-10 10S2 17.52 2 12 6.48 2 12 2z"/></symbol><symbol id="like" viewBox="0 0 24 24"><path d="M18.77 11h-4.23l1.52-4.94C16.38 5.03 15.54 4 14.38 4c-.58 0-1.14.24-1.52.65L7 11H3v10h14.43c1.06 0 1.98-.67 2.19-1.61l1.34-6c.27-1.24-.78-2.39-2.19-2.39zM7 20H4v-8h3v8zm12.98-6.83l-1.34 6c-.1.48-.61.83-1.21.83H8v-8.61l5.6-6.06c.19-.21.48-.33.78-.33.26 0 .5.11.63.3.07.1.15.26.09.47l-1.52 4.94-.4 1.29h5.58c.41 0 .8.17 1.03.46.13.15.26.4.19.71z"/></symbol><symbol id="home" viewBox="0 0 24 24"><path d="M4 10v11h6v-6h4v6h6V10l-8-7z"/></symbol><symbol id="livestream" viewBox="0 0 24 24"><path d="M14 12c0 1.1-.9 2-2 2s-2-.9-2-2 .9-2 2-2 2 .9 2 2zM8.48 8.45l-.71-.7C6.68 8.83 6 10.34 6 12s.68 3.17 1.77 4.25l.71-.71C7.57 14.64 7 13.39 7 12s.57-2.64 1.48-3.55zm7.75-.7l-.71.71c.91.9 1.48 2.15 1.48 3.54s-.57 2.64-1.48 3.55l.71.71C17.32 15.17 18 13.66 18 12s-.68-3.17-1.77-4.25zM5.65 5.63l-.7-.71a9.968 9.968 0 0 0 0 14.16l.71-.71C4.02 16.74 3 14.49 3 12s1.02-4.74 2.65-6.37zm13.4-.71l-.71.71C19.98 7.26 21 9.51 21 12s-1.02 4.74-2.65 6.37l.71.71C20.87 17.27 22 14.76 22 12s-1.13-5.27-2.95-7.08z"/></symbol><symbol id="latervideo" viewBox="0 0 24 24"><path d="M14.97 16.95L10 13.87V7h2v5.76l4.03 2.49-1.06 1.7zM12 3c-4.96 0-9 4.04-9 9s4.04 9 9 9 9-4.04 9-9-4.04-9-9-9m0-1c5.52 0 10 4.48 10 10s-4.48 10-10 10S2 17.52 2 12 6.48 2 12 2z"/></symbol><symbol id="more" viewBox="0 0 24 24"><path d="M12 15.7L5.6 9.4l.7-.7 5.6 5.6 5.6-5.6.7.7-6.2 6.3z"/></symbol><symbol id="movie" viewBox="0 0 24 24"><path d="M4 21H3V3h1v18zm4-6H6v2h2v-2zm0-4H6v2h2v-2zm0-4H6v2h2V7zm10 8h-2v2h2v-2zM8 19H6v2h2v-2zm10 0h-2v2h2v-2zm0-8h-2v2h2v-2zm0-4h-2v2h2V7zM8 3H6v2h2V3zm10 0h-2v2h2V3zm3 0h-1v18h1V3z"/></symbol><symbol id="make" viewBox="0 0 24 24"><path d="M14 13h-3v3H9v-3H6v-2h3V8h2v3h3v2zm3-7H3v12h14v-6.39l4 1.83V8.56l-4 1.83V6m1-1v3.83L22 7v8l-4-1.83V19H2V5h16z"/></symbol><symbol id="myvideo" viewBox="0 0 24 24"><path d="M10 8l6 4-6 4V8zm11-5v18H3V3h18zm-1 1H4v16h16V4z"/></symbol><symbol id="originals" viewBox="0 0 24 24"><path d="M10 9.35L15 12l-5 2.65zM12 6a54.36 54.36 0 0 0-7.56.38 1.53 1.53 0 0 0-1.06 1.06A24.63 24.63 0 0 0 3 12a24.63 24.63 0 0 0 .38 4.56 1.53 1.53 0 0 0 1.06 1.06A54.36 54.36 0 0 0 12 18a54.36 54.36 0 0 0 7.56-.38 1.53 1.53 0 0 0 1.06-1.06A24.63 24.63 0 0 0 21 12a24.63 24.63 0 0 0-.38-4.56 1.53 1.53 0 0 0-1.06-1.06A54.36 54.36 0 0 0 12 6m0-1s6.25 0 7.81.42a2.51 2.51 0 0 1 1.77 1.77A25.87 25.87 0 0 1 22 12a25.87 25.87 0 0 1-.42 4.81 2.51 2.51 0 0 1-1.77 1.77C18.25 19 12 19 12 19s-6.25 0-7.81-.42a2.51 2.51 0 0 1-1.77-1.77A25.87 25.87 0 0 1 2 12a25.87 25.87 0 0 1 .42-4.81 2.51 2.51 0 0 1 1.77-1.77C5.75 5 12 5 12 5z"/></symbol><symbol id="save" viewBox="0 0 24 24"><path d="M17 18v1H6v-1h11zm-.5-6.6l-.7-.7-3.8 3.7V4h-1v10.4l-3.8-3.8-.7.7 5 5 5-4.9z"/></symbol><symbol id="searchy" viewBox="0 0 24 24"><path d="M9.8 9.8l-3.83 8.23 8.23-3.83 3.83-8.23L9.8 9.8zm3.28 2.97a1.327 1.327 0 0 1-1.08.56c-.28 0-.54-.08-.77-.25-.29-.21-.48-.51-.54-.86-.06-.35.02-.71.23-.99.21-.29.51-.48.86-.54.35-.06.7.02.99.23.29.21.48.51.54.86.06.35-.02.7-.23.99zM12 3c4.96 0 9 4.04 9 9s-4.04 9-9 9-9-4.04-9-9 4.04-9 9-9m0-1C6.48 2 2 6.48 2 12s4.48 10 10 10 10-4.48 10-10S17.52 2 12 2z"/></symbol><symbol id="setting" viewBox="0 0 24 24"><path d="M12 9c1.65 0 3 1.35 3 3s-1.35 3-3 3-3-1.35-3-3 1.35-3 3-3m0-1c-2.21 0-4 1.79-4 4s1.79 4 4 4 4-1.79 4-4-1.79-4-4-4zm1.22-5l.55 2.2.13.51.5.18c.61.23 1.19.56 1.72.98l.4.32.5-.14 2.17-.62 1.22 2.11-1.63 1.59-.37.36.08.51c.05.32.08.64.08.98s-.03.66-.08.98l-.08.51.37.36 1.63 1.59-1.22 2.11-2.17-.62-.5-.14-.4.32c-.53.43-1.11.76-1.72.98l-.5.18-.13.51-.55 2.24h-2.44l-.55-2.2-.13-.51-.5-.18c-.6-.23-1.18-.56-1.72-.99l-.4-.32-.5.14-2.17.62-1.21-2.12 1.63-1.59.37-.36-.08-.51c-.05-.32-.08-.65-.08-.98s.03-.66.08-.98l.08-.51-.37-.36L3.6 8.56l1.22-2.11 2.17.62.5.14.4-.32c.53-.44 1.11-.77 1.72-.99l.5-.18.13-.51.54-2.21h2.44M14 2h-4l-.74 2.96c-.73.27-1.4.66-2 1.14l-2.92-.83-2 3.46 2.19 2.13c-.06.37-.09.75-.09 1.14s.03.77.09 1.14l-2.19 2.13 2 3.46 2.92-.83c.6.48 1.27.87 2 1.14L10 22h4l.74-2.96c.73-.27 1.4-.66 2-1.14l2.92.83 2-3.46-2.19-2.13c.06-.37.09-.75.09-1.14s-.03-.77-.09-1.14l2.19-2.13-2-3.46-2.92.83c-.6-.48-1.27-.87-2-1.14L14 2z"/></symbol><symbol id="shorts" viewBox="0 0 24 24"><g class="style-scope yt-icon"><path d="M10 14.65v-5.3L15 12l-5 2.65zm7.77-4.33l-1.2-.5L18 9.06c1.84-.96 2.53-3.23 1.56-5.06s-3.24-2.53-5.07-1.56L6 6.94a3.744 3.744 0 0 0-2 3.49c.07 1.42.93 2.67 2.22 3.25.03.01 1.2.5 1.2.5L6 14.93a3.751 3.751 0 0 0 3.51 6.63l8.5-4.5A3.736 3.736 0 0 0 20 13.57a3.762 3.762 0 0 0-2.23-3.25zm-.23 5.86l-8.5 4.5c-1.34.71-3.01.2-3.72-1.14-.71-1.34-.2-3.01 1.14-3.72l2.04-1.08v-1.21l-.69-.28-1.11-.46A2.751 2.751 0 0 1 5 10.38c-.05-1.06.52-2.06 1.46-2.56l8.5-4.5c1.34-.71 3.01-.2 3.72 1.14.71 1.34.2 3.01-1.14 3.72L15.5 9.26v1.21l1.8.74c.99.41 1.65 1.35 1.7 2.41.05 1.06-.52 2.06-1.46 2.56z" class="style-scope yt-icon"/></g></symbol><symbol id="singo" viewBox="0 0 24 24"><path d="M13.18 4l.24 1.2.16.8H19v7h-5.18l-.24-1.2-.16-.8H6V4h7.18M14 3H5v18h1v-9h6.6l.4 2h7V5h-5.6L14 3z"/></symbol><symbol id="sports" viewBox="0 0 24 24"><path d="M17 3v7.51l-.01.46c-.05 2.13-1.33 3.97-3.25 4.7h-.02l-.06.02-.66.26V20h1v1h1-5v-1h1v-4.05l-.66-.24-.08-.03h-.01c-1.92-.73-3.2-2.57-3.25-4.7V3h10zm1-1H6v3H4v6h2.01c.06 2.53 1.62 4.78 3.96 5.64.01 0 .02 0 .03.01V19H9v1H8v2h8v-2h-1v-1h-1v-2.35c.01 0 .02 0 .03-.01 2.33-.86 3.9-3.1 3.96-5.64H20V5h-2V2zm0 8V6h1v4h-1zM5 10V6h1v4H5z"/></symbol><symbol id="subscribe" viewBox="0 0 24 24"><path d="M10 18v-6l5 3-5 3zm7-15H7v1h10V3zm3 3H4v1h16V6zm2 3H2v12h20V9zM3 10h18v10H3V10z"/></symbol><symbol id="suggestion" viewBox="0 0 24 24"><path d="M13 14h-2v-2h2v2zm0-9h-2v6h2V5zm6-2H5v16.59l3.29-3.29.3-.3H19V3m1-1v15H9l-5 5V2h16z" class="style-scope yt-icon"/></symbol><symbol id="store" viewBox="0 0 24 24"><path d="M11 7l6 3.5-6 3.5V7zm7 13H4V6H3v15h15v-1zm3-2H6V3h15v15zM7 17h13V4H7v13z"/></symbol><symbol id="youtube-logo-wine" viewBox="-57.15 -21.25 495.3 127.5"><style id="style7427">.st2{fill:#282828}</style><g id="g7433"><path id="path7429" fill="red" d="M118.9 13.3c-1.4-5.2-5.5-9.3-10.7-10.7C98.7 0 60.7 0 60.7 0s-38 0-47.5 2.5C8.1 3.9 3.9 8.1 2.5 13.3 0 22.8 0 42.5 0 42.5s0 19.8 2.5 29.2C3.9 76.9 8 81 13.2 82.4 22.8 85 60.7 85 60.7 85s38 0 47.5-2.5c5.2-1.4 9.3-5.5 10.7-10.7 2.5-9.5 2.5-29.2 2.5-29.2s.1-19.8-2.5-29.3z"/><path id="polygon7431" fill="#fff" d="M48.6 24.3v36.4l31.6-18.2z"/></g><g id="g7451"><g id="g7449"><path id="path7435" d="M176.3 77.4c-2.4-1.6-4.1-4.1-5.1-7.6-1-3.4-1.5-8-1.5-13.6v-7.7c0-5.7.6-10.3 1.7-13.8 1.2-3.5 3-6 5.4-7.6 2.5-1.6 5.7-2.4 9.7-2.4 3.9 0 7.1.8 9.5 2.4 2.4 1.6 4.1 4.2 5.2 7.6 1.1 3.4 1.7 8 1.7 13.8v7.7c0 5.7-.5 10.2-1.6 13.7-1.1 3.4-2.8 6-5.2 7.6-2.4 1.6-5.7 2.4-9.8 2.4-4.2-.1-7.6-.9-10-2.5zm13.5-8.4c.7-1.7 1-4.6 1-8.5V43.9c0-3.8-.3-6.6-1-8.4-.7-1.8-1.8-2.6-3.5-2.6-1.6 0-2.8.9-3.4 2.6-.7 1.8-1 4.6-1 8.4v16.6c0 3.9.3 6.8 1 8.5.6 1.7 1.8 2.6 3.5 2.6 1.6 0 2.7-.8 3.4-2.6z" class="st2"/><path id="path7437" d="M360.9 56.3V59c0 3.4.1 6 .3 7.7.2 1.7.6 3 1.3 3.7.6.8 1.6 1.2 3 1.2 1.8 0 3-.7 3.7-2.1.7-1.4 1-3.7 1.1-7l10.3.6c.1.5.1 1.1.1 1.9 0 4.9-1.3 8.6-4 11-2.7 2.4-6.5 3.6-11.4 3.6-5.9 0-10-1.9-12.4-5.6-2.4-3.7-3.6-9.4-3.6-17.2v-9.3c0-8 1.2-13.8 3.7-17.5 2.5-3.7 6.7-5.5 12.6-5.5 4.1 0 7.3.8 9.5 2.3 2.2 1.5 3.7 3.9 4.6 7 .9 3.2 1.3 7.6 1.3 13.2v9.1h-20.1zm1.5-22.4c-.6.8-1 2-1.2 3.7-.2 1.7-.3 4.3-.3 7.8v3.8h8.8v-3.8c0-3.4-.1-6-.3-7.8-.2-1.8-.7-3-1.3-3.7-.6-.7-1.6-1.1-2.8-1.1-1.4-.1-2.3.3-2.9 1.1z" class="st2"/><path id="path7439" d="M147.1 55.3L133.5 6h11.9l4.8 22.3c1.2 5.5 2.1 10.2 2.7 14.1h.3c.4-2.8 1.3-7.4 2.7-14l5-22.4h11.9L159 55.3v23.6h-11.8V55.3z" class="st2"/><path id="path7441" d="M241.6 25.7V79h-9.4l-1-6.5h-.3c-2.5 4.9-6.4 7.4-11.5 7.4-3.5 0-6.1-1.2-7.8-3.5-1.7-2.3-2.5-5.9-2.5-10.9V25.7h12v39.1c0 2.4.3 4.1.8 5.1s1.4 1.5 2.6 1.5c1 0 2-.3 3-1 1-.6 1.7-1.4 2.1-2.4V25.7z" class="st2"/><path id="path7443" d="M303.1 25.7V79h-9.4l-1-6.5h-.3c-2.5 4.9-6.4 7.4-11.5 7.4-3.5 0-6.1-1.2-7.8-3.5-1.7-2.3-2.5-5.9-2.5-10.9V25.7h12v39.1c0 2.4.3 4.1.8 5.1s1.4 1.5 2.6 1.5c1 0 2-.3 3-1 1-.6 1.7-1.4 2.1-2.4V25.7z" class="st2"/><path id="path7445" d="M274.2 15.7h-11.9v63.2h-11.7V15.7h-11.9V6h35.5z" class="st2"/><path id="path7447" d="M342.8 34.2c-.7-3.4-1.9-5.8-3.5-7.3s-3.9-2.3-6.7-2.3c-2.2 0-4.3.6-6.2 1.9-1.9 1.2-3.4 2.9-4.4 4.9h-.1V3.3h-11.6v75.6h9.9l1.2-5h.3c.9 1.8 2.3 3.2 4.2 4.3 1.9 1 3.9 1.6 6.2 1.6 4.1 0 7-1.9 8.9-5.6 1.9-3.7 2.9-9.6 2.9-17.5v-8.4c-.1-6.1-.4-10.8-1.1-14.1zm-11 21.7c0 3.9-.2 6.9-.5 9.1-.3 2.2-.9 3.8-1.6 4.7-.8.9-1.8 1.4-3 1.4-1 0-1.9-.2-2.7-.7-.8-.5-1.5-1.2-2-2.1V38.1c.4-1.4 1.1-2.6 2.1-3.6 1-.9 2.1-1.4 3.2-1.4 1.2 0 2.2.5 2.8 1.4.7 1 1.1 2.6 1.4 4.8.3 2.3.4 5.5.4 9.6v7z" class="st2"/></g></g></symbol></svg>